<mxfile host="65bd71144e">
    <diagram id="Ivb8Ic-vAOkp9ECe2T1w" name="Page-1">
        <mxGraphModel dx="585" dy="1150" grid="1" gridSize="10" guides="1" tooltips="1" connect="1" arrows="1" fold="1" page="1" pageScale="1" pageWidth="850" pageHeight="1100" math="0" shadow="0">
            <root>
                <mxCell id="0"/>
                <mxCell id="1" parent="0"/>
                <mxCell id="6" value="" style="edgeStyle=orthogonalEdgeStyle;rounded=0;orthogonalLoop=1;jettySize=auto;html=1;endArrow=block;endFill=0;" edge="1" parent="1" source="2" target="5">
                    <mxGeometry relative="1" as="geometry"/>
                </mxCell>
                <mxCell id="8" value="" style="edgeStyle=orthogonalEdgeStyle;rounded=0;orthogonalLoop=1;jettySize=auto;html=1;endArrow=block;endFill=0;" edge="1" parent="1" source="2" target="7">
                    <mxGeometry relative="1" as="geometry"/>
                </mxCell>
                <mxCell id="2" value="ProviderNode" style="html=1;" vertex="1" parent="1">
                    <mxGeometry x="200" y="120" width="110" height="50" as="geometry"/>
                </mxCell>
                <mxCell id="10" value="" style="edgeStyle=orthogonalEdgeStyle;rounded=0;orthogonalLoop=1;jettySize=auto;html=1;endArrow=block;endFill=0;" edge="1" parent="1" source="5" target="9">
                    <mxGeometry relative="1" as="geometry"/>
                </mxCell>
                <mxCell id="5" value="ContainerNode" style="html=1;" vertex="1" parent="1">
                    <mxGeometry x="70" y="240" width="110" height="50" as="geometry"/>
                </mxCell>
                <mxCell id="7" value="LeafNode" style="html=1;" vertex="1" parent="1">
                    <mxGeometry x="320" y="240" width="110" height="50" as="geometry"/>
                </mxCell>
                <mxCell id="9" value="RootNode" style="html=1;" vertex="1" parent="1">
                    <mxGeometry x="70" y="370" width="110" height="50" as="geometry"/>
                </mxCell>
            </root>
        </mxGraphModel>
    </diagram>
</mxfile>